PathFileType	4	(X/Y/Z)	\\Move.snu.ac.kr\motion\Animal\091204_091205_Bird\091205_bird\Project 2\Capture day 2\Session 1\pigeon_015.trc
DataRate	CameraRate	NumFrames	NumMarkers	Units	OrigDataRate	OrigDataStartFrame	OrigNumFrames
240.0	240.0	14	14	mm	240.0	278	2522
Frame#	Time	14MarkersBird:Head			14MarkersBird:C_back			14MarkersBird:Spine			14MarkersBird:L-shoulder			14MarkersBird:L-elbow			14MarkersBird:L-wrist			14MarkersBird:L-hand			14MarkersBird:R-shoulder			14MarkersBird:R-elbow			14MarkersBird:R-Wrist			14MarkersBird:R-hand			14MarkersBird:C_Tail			14MarkersBird:L-Tale			14MarkersBird:R-Tale			
		X1	Y1	Z1	X2	Y2	Z2	X3	Y3	Z3	X4	Y4	Z4	X5	Y5	Z5	X6	Y6	Z6	X7	Y7	Z7	X8	Y8	Z8	X9	Y9	Z9	X10	Y10	Z10	X11	Y11	Z11	X12	Y12	Z12	X13	Y13	Z13	X14	Y14	Z14	

1394	5.804	-2271.11060	780.41461	-203.07320	-2209.84717	788.33087	-206.51927	-2156.58276	781.25336	-211.99916	-2238.51709	781.40289	-183.18385	-2216.93213	771.63928	-157.83958	-2257.49438	754.73999	-153.45952	-2272.21045	731.65527	-148.69250	-2243.56152	775.54547	-227.01851	-2230.49146	767.89801	-251.15453	-2267.15942	749.31689	-244.51224	-2288.88379	716.60999	-249.08859	-2055.87646	705.82806	-213.12981	-2102.31982	740.41663	-128.22429	-2114.57764	733.38873	-308.54495	
1395	5.808	-2288.66577	775.76849	-200.35590	-2227.91919	784.03522	-204.28162	-2174.44727	777.26495	-209.97690	-2256.06348	777.19769	-180.97729	-2231.57910	769.66931	-156.51768	-2273.57837	756.88660	-151.91080	-2287.86743	732.78772	-149.60417	-2261.34326	771.76324	-224.51189	-2245.51685	766.96832	-249.36891	-2283.57080	752.17853	-242.42093	-2304.39307	718.34406	-244.80408	-2073.74121	702.39673	-213.98564	-2118.14380	732.72247	-128.49300	-2133.04883	729.36377	-306.92514	
1396	5.813	-2306.40234	770.96008	-197.63242	-2246.28296	779.29828	-202.06223	-2192.53931	773.18469	-207.88057	-2273.70313	772.55518	-178.87292	-2246.01147	768.93250	-155.83006	-2288.69360	760.26855	-148.62814	-2301.60107	735.22144	-146.54990	-2279.15234	767.68524	-221.96133	-2260.00781	767.17657	-247.15479	-2299.39771	756.00610	-242.03427	-2318.67578	721.21918	-244.74797	-2091.57935	699.41260	-214.25090	-2133.96436	725.53864	-128.86293	-2151.15430	725.38409	-304.89621	
1397	5.817	-2324.24585	766.04407	-194.97577	-2264.83325	774.21503	-199.87947	-2210.77759	769.00073	-205.69737	-2291.40308	767.48407	-176.86494	-2260.66162	768.95691	-156.19521	-2303.02979	764.29871	-144.60962	-2313.28101	738.38647	-140.45746	-2296.90405	763.35895	-219.30630	-2274.19263	768.04913	-243.77016	-2314.61133	760.28735	-242.59894	-2331.42578	724.83301	-248.00334	-2109.41528	696.45685	-213.68164	-2149.84912	719.23291	-129.03990	-2168.55322	722.39661	-302.64941	
1398	5.821	-2342.12134	761.06891	-192.43224	-2283.47510	768.91815	-197.73137	-2229.08057	764.66351	-203.43988	-2309.15698	762.09174	-174.96100	-2275.90356	769.10052	-157.82066	-2316.82837	768.54803	-141.00421	-2322.73486	742.38751	-132.97905	-2314.55322	758.90637	-216.49121	-2288.50610	768.98309	-238.73502	-2329.20801	764.67944	-243.18307	-2342.32031	729.44055	-253.30302	-2127.15479	693.23938	-212.29082	-2165.94092	714.20349	-128.63684	-2185.23120	720.98132	-300.41147	
1399	5.825	-2359.98438	756.06702	-190.02742	-2302.13403	763.56281	-195.58492	-2247.36719	760.11743	-201.13562	-2326.98389	756.58191	-173.10579	-2291.93408	768.70709	-160.52954	-2330.42139	772.57208	-138.77220	-2330.17236	747.65405	-126.14122	-2332.07886	754.45105	-213.48048	-2303.40698	769.36688	-232.08904	-2343.37329	768.88281	-242.81709	-2351.23828	735.68365	-259.14749	-2144.64624	689.68372	-210.26883	-2182.43115	710.73035	-127.30083	-2201.51196	721.12524	-298.30704	
1400	5.829	-2377.81274	751.05072	-187.78806	-2320.74512	758.30975	-193.35892	-2265.55444	755.31122	-198.81509	-2344.87744	751.14612	-171.17714	-2308.79077	767.25482	-163.77583	-2344.22095	775.85059	-138.31523	-2336.58203	754.47772	-121.71488	-2349.49219	750.00732	-210.30435	-2319.16064	768.73376	-224.35481	-2357.51001	772.55212	-240.84692	-2358.53247	744.19067	-263.89624	-2161.77197	685.91046	-207.81874	-2199.50854	708.82471	-124.86630	-2217.85254	722.35101	-296.30878	
1401	5.833	-2395.58154	746.03900	-185.73074	-2339.20020	753.24396	-190.95615	-2283.56787	750.19501	-196.48994	-2362.75854	745.81195	-169.07094	-2326.39893	764.50018	-166.84753	-2358.59424	777.94263	-139.24130	-2343.56860	762.69043	-120.54123	-2366.83911	745.46112	-207.10175	-2335.77954	766.84631	-216.31659	-2372.03516	775.34521	-237.31770	-2365.18140	755.11530	-265.96747	-2178.47046	682.19055	-205.03165	-2217.29688	708.16125	-121.45094	-2234.60254	724.01007	-294.31134	
1402	5.838	-2413.25366	741.05145	-183.83105	-2357.35059	748.28296	-188.37494	-2301.36084	744.72516	-194.14949	-2380.52881	740.46008	-166.77213	-2344.60693	760.63635	-169.16167	-2373.69092	778.70361	-140.44760	-2352.71729	771.63763	-122.27912	-2384.18921	740.67041	-204.09589	-2353.16870	763.73132	-208.81169	-2387.17358	777.08203	-233.00986	-2372.64648	767.76276	-264.31216	-2194.72754	678.86865	-201.88565	-2235.81372	708.15277	-117.40326	-2251.91528	725.46423	-292.23215	
1403	5.842	-2430.82544	736.08478	-182.01183	-2375.08301	743.21478	-185.76257	-2318.91699	738.88715	-191.79721	-2398.16699	735.00262	-164.33220	-2363.24243	756.22211	-170.36633	-2389.38452	778.26910	-140.60147	-2365.00562	780.29523	-125.59047	-2401.59814	735.55481	-201.51163	-2371.32764	759.69342	-202.55167	-2402.95752	777.74359	-229.03932	-2382.46606	780.61151	-259.10425	-2210.56104	676.22443	-198.33221	-2254.94946	708.13379	-113.14116	-2269.82251	726.07068	-290.08499	
1404	5.846	-2448.33228	731.09204	-180.19017	-2392.40796	737.88696	-183.28633	-2336.21289	732.75006	-189.47864	-2415.72388	729.49146	-161.78432	-2382.16382	751.78625	-170.18523	-2405.34180	776.76080	-138.69843	-2380.54565	787.38812	-128.48344	-2419.06348	730.11493	-199.48077	-2390.39917	755.20978	-197.97328	-2419.31323	777.23657	-226.36877	-2395.75977	791.75269	-252.09955	-2226.04004	674.34705	-194.39265	-2274.48291	707.55225	-109.00550	-2288.31421	725.13599	-288.02600	
1405	5.850	-2465.79858	726.02130	-178.33183	-2409.43530	732.36194	-180.97736	-2353.17261	726.49298	-187.25636	-2433.22021	724.05438	-159.13625	-2401.25854	747.44794	-168.26343	-2421.19873	773.99854	-134.42506	-2398.60669	791.62415	-128.76022	-2436.52271	724.44055	-197.96800	-2410.39209	750.67737	-195.22424	-2436.10938	775.20972	-225.54169	-2412.82275	799.35028	-246.08369	-2241.34497	673.07281	-190.20297	-2294.15503	706.05475	-105.18752	-2307.32080	722.05731	-286.30295	
1406	5.854	-2483.22241	720.88824	-176.45352	-2426.27075	726.82202	-178.77039	-2369.69336	720.38214	-185.17493	-2450.59229	718.78003	-156.44884	-2420.23877	742.95648	-164.43674	-2436.80225	769.51001	-128.14812	-2417.89600	792.04663	-124.77308	-2453.91797	718.69061	-196.75555	-2430.77686	746.19757	-194.24846	-2453.24097	771.17572	-226.57841	-2433.01416	802.01770	-243.57428	-2256.76221	671.98340	-186.01210	-2313.73438	703.51062	-101.76131	-2326.65088	716.60779	-285.06552	
1407	5.858	-2500.60083	715.77423	-174.57472	-2442.94360	721.38196	-176.58076	-2385.79639	714.64771	-183.23592	-2467.77881	713.70386	-153.81868	-2438.62939	737.99548	-159.03770	-2452.34009	762.85486	-120.55011	-2437.17773	788.22351	-116.23761	-2471.26978	713.06854	-195.53186	-2450.61768	741.55115	-194.81310	-2470.72485	764.83093	-229.07819	-2455.12817	799.15918	-245.56625	-2272.56323	670.50653	-182.15060	-2333.03540	699.96387	-98.73737	-2345.98877	709.08722	-284.20859	
